<svg id="stencil" xmlns="http://www.w3.org/2000/svg" viewBox="0 0 280.17 302.14"><defs><style>.cls-1{fill:#009245;}.cls-2{fill:#8cc63f;}.cls-3{fill:#006837;}</style></defs><path class="cls-1" d="M202.15,100.12l68.69-68.68L242.21,2.81,130.34,114.67a73.57,73.57,0,1,0,71.81-14.55ZM178.9,202.88A32.93,32.93,0,1,1,211.82,170,32.93,32.93,0,0,1,178.9,202.88Z"/><circle class="cls-1" cx="178.82" cy="274.62" r="18.9"/><path class="cls-2" d="M87.28,151.34a73.58,73.58,0,1,0,73.58,73.58A73.58,73.58,0,0,0,87.28,151.34Zm0,106.51a32.93,32.93,0,1,1,32.92-32.93A32.93,32.93,0,0,1,87.28,257.85Z"/><path class="cls-3" d="M84.31,151.84a33.63,33.63,0,0,1-26.2-14.44,32.92,32.92,0,1,1,56.59-3.49L147,159.19a73.6,73.6,0,1,0-57.73,33.24Z"/></svg>